<svg width="24" height="24" viewBox="0 0 24 24" fill="none" xmlns="http://www.w3.org/2000/svg">
  <path d="M9.01022 18.5961L9.0207 18.6466C9.30473 20.015 10.5517 21 12 21C13.4483 21 14.6953 20.015 14.9793 18.6466L14.9898 18.5961C15.0538 18.2877 14.809 18 14.4826 18L9.51742 18C9.19102 18 8.94621 18.2877 9.01022 18.5961Z" stroke="white" stroke-width="2"/>
  <path d="M5 10C5 6.13401 8.13401 3 12 3V3C15.866 3 19 6.13401 19 10L19 13.2047C19 13.3994 19.0409 13.5919 19.1199 13.7699L20.375 16.5939C20.669 17.2551 20.1849 18 19.4612 18L4.53876 18C3.8151 18 3.33104 17.2551 3.62495 16.5939L4.88006 13.7699C4.95914 13.5919 5 13.3994 5 13.2047L5 10Z" stroke="white" stroke-width="2" stroke-linecap="round" stroke-linejoin="round"/>
</svg>